#!OML:ASF X:\für Bonn\!DataBase\2005_08_10_Bjorn_Final\c3d\bjorn.ASF
:FULLY-SPECIFIED
:DEGREES
93
root 16.4695 19.1478 0.216654 166.027 -105.103 -145.006
lowerback 34.438 -0.167945 12.4477
upperback 23.3522 -0.132264 3.97849
thorax 8.98154 0.157708 -2.28331
lowerneck 11.6144 -8.77038 7.71728
upperneck -10.7247 -10.3592 0.764239
head -5.49397 -5.42419 -0.112615
rclavicle 5.40694e-014 3.27995e-015
rhumerus 37.1102 1.05792 -57.8403
rradius 26.4351
rwrist -11.3933
rhand -14.7019 11.9351
rfingers 7.12502
rthumb 11.4522 -17.7321
lclavicle 5.40694e-014 3.27995e-015
lhumerus -17.8798 -34.1267 90.6516
lradius 44.1067
lwrist -10.6484
lhand -14.5818 -6.40569
lfingers 7.12502
lthumb 11.5681 23.255
rfemur -46.5788 -12.3092 10.3298
rtibia 38.6684
rfoot -7.46863 4.55281
rtoes -4.856
lfemur -42.1393 1.74848 -26.6795
ltibia 49.2857
lfoot -13.2711 -6.88195
ltoes -22.398
94
root 16.4477 19.1331 0.216944 166.159 -105.359 -144.375
lowerback 34.722 -0.208166 12.5284
upperback 23.3439 -0.112824 3.93987
thorax 8.88032 0.183621 -2.36065
lowerneck 11.5317 -8.82359 7.84618
upperneck -11.0961 -10.4038 0.881781
head -5.6006 -5.46993 -0.0841807
rclavicle 9.85972e-014 2.07481e-014
rhumerus 37.9407 0.877485 -56.9372
rradius 26.5097
rwrist -11.7102
rhand -14.6946 11.87
rfingers 7.12502
rthumb 11.4593 -17.7968
lclavicle 9.85972e-014 2.07481e-014
lhumerus -18.0554 -34.5478 90.7385
lradius 44.223
lwrist -10.3103
lhand -14.3637 -6.51625
lfingers 7.12502
lthumb 11.7784 23.1326
rfemur -47.4985 -12.3933 10.0989
rtibia 39.0659
rfoot -7.67761 4.32859
rtoes -5.03194
lfemur -43.2574 1.63878 -26.8884
ltibia 48.881
lfoot -13.601 -5.9512
ltoes -22.4608
95
root 16.4263 19.1177 0.217803 166.305 -105.624 -143.779
lowerback 35.0086 -0.249525 12.5921
upperback 23.3332 -0.0978547 3.91357
thorax 8.77467 0.203539 -2.41518
lowerneck 11.4652 -8.86846 7.99429
upperneck -11.4813 -10.436 0.973387
head -5.71661 -5.50955 -0.066324
rclavicle -1.62208e-013 -1.56294e-014
rhumerus 38.755 0.715446 -55.9672
rradius 26.5801
rwrist -12.089
rhand -14.6405 11.7652
rfingers 7.12502
rthumb 11.5115 -17.8987
lclavicle -1.62208e-013 -1.56294e-014
lhumerus -18.2404 -34.8599 90.8381
lradius 44.3613
lwrist -10.0003
lhand -14.2008 -6.69981
lfingers 7.12502
lthumb 11.9355 22.9399
rfemur -48.3908 -12.4949 9.86694
rtibia 39.4671
rfoot -7.88926 4.11343
rtoes -5.19482
lfemur -44.3462 1.53255 -27.1002
ltibia 48.4122
lfoot -13.826 -5.00831
ltoes -22.6211
96
root 16.4052 19.1008 0.218859 166.477 -105.882 -143.216
lowerback 35.2816 -0.284832 12.6272
upperback 23.343 -0.0912123 3.90509
thorax 8.69629 0.214728 -2.43481
lowerneck 11.3668 -8.89535 8.10453
upperneck -11.8758 -10.4546 1.06616
head -5.82794 -5.54267 -0.0449048
rclavicle -3.81667e-014 2.23633e-014
rhumerus 39.6112 0.556993 -54.9406
rradius 26.628
rwrist -12.482
rhand -14.5641 11.6278
rfingers 7.12502
rthumb 11.5851 -18.032
lclavicle -3.81667e-014 2.23633e-014
lhumerus -18.3418 -35.1476 90.9212
lradius 44.5179
lwrist -9.62451
lhand -14.1325 -6.81867
lfingers 7.12502
lthumb 12.0014 22.8172
rfemur -49.2688 -12.5594 9.61619
rtibia 39.8645
rfoot -8.11701 3.87711
rtoes -5.20254
lfemur -45.4295 1.42632 -27.3005
ltibia 47.8804
lfoot -13.9339 -4.06271
ltoes -22.7228
97
root 16.3848 19.0848 0.219801 166.779 -106.13 -142.818
lowerback 35.5689 -0.329829 12.7165
upperback 23.3589 -0.0825958 3.8926
thorax 8.62636 0.2336 -2.48585
lowerneck 11.2138 -8.91728 8.26153
upperneck -12.2174 -10.4653 1.14823
head -5.91662 -5.5726 -0.0382763
rclavicle -2.22639e-014 1.59028e-014
rhumerus 40.4234 0.447876 -53.8019
rradius 26.6975
rwrist -13.0035
rhand -14.534 11.4442
rfingers 7.12502
rthumb 11.6141 -18.214
lclavicle -2.22639e-014 1.59028e-014
lhumerus -18.4268 -35.4087 90.9711
lradius 44.7023
lwrist -9.24899
lhand -14.106 -6.89427
lfingers 7.12502
lthumb 12.0269 22.7401
rfemur -50.1089 -12.6622 9.43634
rtibia 40.2431
rfoot -8.31556 3.66103
rtoes -5.30582
lfemur -46.4823 1.37597 -27.48
ltibia 47.2914
lfoot -13.9069 -3.16116
ltoes -22.9227
98
root 16.3645 19.0705 0.222196 167.101 -106.37 -142.466
lowerback 35.8547 -0.371422 12.8245
upperback 23.3906 -0.0696366 3.88378
thorax 8.57906 0.25726 -2.54321
lowerneck 11.0328 -8.94396 8.46385
upperneck -12.5667 -10.483 1.20006
head -6.00774 -5.60694 -0.0478418
rclavicle -6.99722e-014 1.37161e-014
rhumerus 41.262 0.209483 -52.7246
rradius 26.6588
rwrist -13.3622
rhand -14.4997 11.3093
rfingers 7.12502
rthumb 11.6473 -18.347
lclavicle -6.99722e-014 1.37161e-014
lhumerus -18.4324 -35.6943 90.9993
lradius 44.8692
lwrist -8.82496
lhand -14.1011 -6.99222
lfingers 7.12502
lthumb 12.0316 22.6419
rfemur -50.912 -12.7841 9.28048
rtibia 40.6006
rfoot -8.50778 3.45919
rtoes -5.59956
lfemur -47.499 1.35795 -27.6639
ltibia 46.6498
lfoot -13.8381 -2.33297
ltoes -23.0851
